<svg width="20" height="36" viewBox="0 0 20 36" fill="none" xmlns="http://www.w3.org/2000/svg">
<path d="M19.2401 9.68303C19.2401 9.89675 19.2332 10.1087 19.2195 10.3188C19.1423 11.5308 18.8383 12.7172 18.3234 13.8154C18.3194 13.8248 18.3147 13.8335 18.3108 13.8422C18.2868 13.8931 18.2622 13.944 18.2369 13.9943C18.0838 14.3049 17.9139 14.6068 17.728 14.8987C16.8789 16.2388 15.7152 17.3477 14.3396 18.1273C12.964 18.9069 11.4189 19.3333 9.84089 19.3688L9.93604 24.8786L11.1767 24.2207L11.3982 24.6447L9.94535 25.4152L10.123 35.6483L10.125 35.7849L9.16568 36L9.16766 35.8627L9.46969 19.3694C8.19951 19.3511 6.9456 19.0788 5.78076 18.5684C4.61593 18.0579 3.56338 17.3196 2.68422 16.3961C2.62371 16.3332 2.56383 16.2682 2.50528 16.2038L2.49862 16.1965C1.76613 15.392 1.17373 14.4687 0.746386 13.4657C0.75571 13.4764 0.76568 13.4864 0.775004 13.4971C-0.190809 11.2226 -0.256314 8.66219 0.591912 6.34057C1.44014 4.01896 3.13787 2.11195 5.3372 1.01032C5.37046 0.993572 5.4044 0.977489 5.43767 0.960742C7.61321 -0.0946014 10.1031 -0.28825 12.4137 0.418191C14.7243 1.12463 16.6871 2.67959 17.9129 4.77485C17.9715 4.87401 18.028 4.97518 18.0826 5.07701C18.844 6.49101 19.242 8.07447 19.2401 9.68303Z" fill="#E5E5E5"/>
</svg>
