<svg width="25" height="22" viewBox="0 0 25 22" fill="none" xmlns="http://www.w3.org/2000/svg">
<path opacity="0.2" d="M3.29986 0C2.0851 2.86171 1.92031 6.0652 2.83493 9.03801C3.74955 12.0108 5.68399 14.5592 8.29257 16.2279C10.9011 17.8965 14.0139 18.5766 17.0745 18.1467C20.1352 17.7168 22.9443 16.2049 25 13.8811C24.2579 15.6294 23.1473 17.1944 21.7451 18.4676C20.3428 19.7408 18.6825 20.6917 16.8791 21.2545C15.0757 21.8173 13.1724 21.9785 11.301 21.7269C9.42958 21.4754 7.63487 20.8171 6.04118 19.7976C4.44749 18.7782 3.09293 17.422 2.07134 15.823C1.04976 14.224 0.385579 12.4204 0.12482 10.5372C-0.135938 8.65405 0.0129587 6.73628 0.561195 4.91681C1.10943 3.09734 2.0439 1.41965 3.29986 0Z" fill="#252525"/>
</svg>
