<svg width="201" height="129" viewBox="0 0 201 129" fill="none" xmlns="http://www.w3.org/2000/svg">
<path d="M200.441 0.565598C184.476 -0.384984 168.463 -0.137085 152.534 1.30724C144.857 2.00613 137.057 2.76102 129.522 4.44759C123.452 5.80606 116.408 8.10208 112.626 13.4499C111.834 14.5274 111.3 15.7749 111.067 17.0947C110.833 18.4145 110.905 19.7709 111.279 21.0578C112.18 24.1063 114.424 26.6439 116.813 28.6315C122.311 33.2059 129.133 35.8679 135.226 39.5021C146.352 46.1376 156.535 55.0814 163.07 66.4428C165.946 71.4423 168.682 78.0899 165.48 83.5988C162.342 88.9957 155.339 90.855 149.627 91.7318C142.468 92.8308 135.094 92.5327 127.905 91.9173C120.024 91.1772 112.187 90.0211 104.426 88.4539C89.2217 85.5137 74.1559 81.7736 58.7403 80.0728C51.0109 79.1572 43.2163 78.9302 35.4472 79.3945C28.4308 79.8711 21.3544 80.9888 14.763 83.5367C9.68381 85.5001 4.26964 88.4707 1.52605 93.4247C-1.11865 98.2002 -0.087133 103.707 2.79261 108.113C6.25754 113.415 11.6606 117.047 17.278 119.703C23.6739 122.726 30.5149 124.685 37.3647 126.352C40.8387 127.197 44.3315 127.961 47.8246 128.721C48.5533 128.88 48.8647 127.753 48.1334 127.593C41.0892 126.06 34.0246 124.523 27.1554 122.303C20.7986 120.25 14.2933 117.619 9.08773 113.307C4.87637 109.819 0.872241 104.724 1.12081 98.9304C1.37139 93.0903 6.2368 89.0127 11.0056 86.5028C16.9652 83.3662 23.7361 81.8383 30.3709 81.0398C37.9678 80.1873 45.6291 80.0823 53.2462 80.7265C68.6254 81.905 83.6609 85.4331 98.7397 88.5105C113.388 91.5002 128.494 94.2685 143.506 93.5017C149.456 93.1978 155.832 92.3391 161.086 89.3144C163.491 87.9295 165.66 85.9765 166.883 83.4349C167.984 81.0168 168.332 78.3193 167.882 75.6979C167.03 69.9395 163.634 64.5999 160.245 60.0132C156.531 55.0385 152.222 50.5434 147.416 46.6296C142.142 42.3548 136.455 38.6238 130.441 35.4927C127.252 33.8017 124.017 32.1756 120.978 30.217C118.064 28.339 115.189 26.0793 113.409 23.0306C111.87 20.3938 111.588 17.3844 113.191 14.71C114.812 12.0052 117.606 10.1187 120.361 8.74009C126.999 5.41863 134.716 4.52957 141.978 3.61852C157.571 1.66913 173.286 0.880036 188.994 1.25765C192.812 1.3481 196.628 1.50729 200.441 1.73521C201.188 1.77944 201.185 0.60967 200.441 0.565587V0.565598Z" fill="#252525"/>
</svg>
